<svg width="24" height="24" viewBox="0 0 24 24" fill="#666666" xmlns="http://www.w3.org/2000/svg">
<path fill-rule="evenodd" clip-rule="evenodd" d="M2.50001 7C1.80143 10.2967 1.80143 13.7033 2.50001 17C2.5918 17.3348 2.76915 17.6399 3.01461 17.8854C3.26008 18.1309 3.56522 18.3082 3.90001 18.4C9.26344 19.2887 14.7366 19.2887 20.1 18.4C20.4348 18.3082 20.7399 18.1309 20.9854 17.8854C21.2309 17.6399 21.4082 17.3348 21.5 17C22.1986 13.7033 22.1986 10.2967 21.5 7C21.4082 6.66521 21.2309 6.36007 20.9854 6.11461C20.7399 5.86914 20.4348 5.69179 20.1 5.6C14.7366 4.71146 9.26346 4.71146 3.90001 5.6C3.56522 5.69179 3.26008 5.86914 3.01461 6.11461C2.76915 6.36007 2.5918 6.66521 2.50001 7ZM13.0563 10.8338L15 12L13.0563 13.1662L12 13.8L10 15V12.6676V11.3324V9L12 10.2L13.0563 10.8338Z" fill="#666666"/>
</svg>
